<svg width="18" height="19" viewBox="0 0 18 19" fill="none" xmlns="http://www.w3.org/2000/svg">
<path d="M9.44786 16.7333C8.93674 17.2444 8.41845 17.4999 7.89301 17.4999C7.36756 17.5047 6.84211 17.2468 6.31666 16.7261L1.78107 12.1977C1.25562 11.6722 0.995288 11.1468 1.00006 10.6213C1.00484 10.0959 1.26279 9.57759 1.77391 9.06647L8.78149 2.07322C8.95823 1.89648 9.11826 1.7675 9.26156 1.6863C9.40964 1.60509 9.56967 1.55493 9.74163 1.53583C9.9136 1.51194 10.1238 1.5 10.3722 1.5H13.1021C13.3553 1.5 13.5607 1.52388 13.7183 1.57165C13.8807 1.61464 14.0288 1.69107 14.1626 1.80094C14.2963 1.90603 14.454 2.04695 14.6355 2.22369L16.2835 3.87169C16.465 4.05321 16.6083 4.21323 16.7134 4.35176C16.8185 4.48551 16.8925 4.63359 16.9355 4.796C16.9833 4.95364 17.0072 5.15904 17.0072 5.41221V8.13499C17.0072 8.38816 16.9952 8.60073 16.9713 8.7727C16.9522 8.93989 16.9021 9.09752 16.8209 9.2456C16.7444 9.38891 16.6155 9.55132 16.4339 9.73284L9.44786 16.7333ZM11.8984 7.23218C12.1754 7.23218 12.4071 7.13664 12.5934 6.94557C12.7845 6.75449 12.88 6.52282 12.88 6.25054C12.88 5.97349 12.7845 5.74181 12.5934 5.55551C12.4071 5.36444 12.1754 5.26891 11.8984 5.26891C11.6165 5.26891 11.3825 5.36444 11.1962 5.55551C11.0099 5.74181 10.9167 5.97349 10.9167 6.25054C10.9167 6.52282 11.0099 6.75449 11.1962 6.94557C11.3825 7.13664 11.6165 7.23218 11.8984 7.23218Z" fill="#9EA4B4"/>
</svg>
