<svg width="120" height="162" viewBox="0 0 120 162" fill="none" xmlns="http://www.w3.org/2000/svg">
<ellipse cx="59.9999" cy="151.624" rx="26.4259" ry="9.53065" fill="#632FC3"/>
<path d="M60 0C93.1368 0.000127466 120 26.8631 120 60V61.3613C120 86.7818 108.728 110.894 89.2236 127.197L60 151.624L30.7764 127.197C11.2721 110.894 0 86.7818 0 61.3613V60C0 26.863 26.863 0 60 0ZM63.7529 27.7754C61.5497 26.0465 58.4503 26.0466 56.2471 27.7754L30.0801 48.3086C28.6114 49.461 27.7529 51.225 27.7529 53.0918V77.3936C27.7531 80.7507 30.4749 83.4724 33.832 83.4727H86.167C89.5244 83.4727 92.2459 80.7509 92.2461 77.3936V53.0918C92.2461 51.225 91.3886 49.461 89.9199 48.3086L63.7529 27.7754Z" fill="url(#paint0_linear_619_3475)"/>
<defs>
<linearGradient id="paint0_linear_619_3475" x1="60" y1="92.1895" x2="60" y2="151.624" gradientUnits="userSpaceOnUse">
<stop stop-color="white"/>
<stop offset="1" stop-color="#CDBBEE"/>
</linearGradient>
</defs>
</svg>
