<svg width="18" height="18" viewBox="0 0 18 18" fill="none" xmlns="http://www.w3.org/2000/svg">
<path d="M9 17C7.89673 17 6.86144 16.7909 5.89412 16.3725C4.9268 15.9595 4.07712 15.3869 3.3451 14.6549C2.61307 13.9176 2.03791 13.068 1.61961 12.1059C1.20654 11.1386 1 10.1033 1 9C1 7.89673 1.20654 6.86144 1.61961 5.89412C2.03791 4.9268 2.61307 4.07712 3.3451 3.3451C4.07712 2.61307 4.9268 2.04052 5.89412 1.62745C6.86144 1.20915 7.89673 1 9 1C10.1033 1 11.1386 1.20915 12.1059 1.62745C13.0732 2.04052 13.9229 2.61307 14.6549 3.3451C15.3869 4.07712 15.9595 4.9268 16.3725 5.89412C16.7909 6.86144 17 7.89673 17 9C17 10.1033 16.7909 11.1386 16.3725 12.1059C15.9595 13.068 15.3869 13.9176 14.6549 14.6549C13.9229 15.3869 13.0732 15.9595 12.1059 16.3725C11.1386 16.7909 10.1033 17 9 17ZM7.58824 13.5333H10.8745C11.0418 13.5333 11.183 13.481 11.298 13.3765C11.4131 13.2667 11.4706 13.1281 11.4706 12.9608C11.4706 12.8039 11.4131 12.6706 11.298 12.5608C11.183 12.4458 11.0418 12.3882 10.8745 12.3882H9.87843V8.28627C9.87843 8.06667 9.82353 7.88889 9.71373 7.75294C9.60915 7.61699 9.45229 7.54902 9.24314 7.54902H7.72157C7.55948 7.54902 7.42092 7.60654 7.30588 7.72157C7.19085 7.83137 7.13333 7.96471 7.13333 8.12157C7.13333 8.28889 7.19085 8.42745 7.30588 8.53726C7.42092 8.64183 7.55948 8.69412 7.72157 8.69412H8.58431V12.3882H7.58824C7.42092 12.3882 7.27974 12.4458 7.16471 12.5608C7.04967 12.6706 6.99216 12.8039 6.99216 12.9608C6.99216 13.1281 7.04967 13.2667 7.16471 13.3765C7.27974 13.481 7.42092 13.5333 7.58824 13.5333ZM8.92941 6.20784C9.22745 6.20784 9.47582 6.10588 9.67451 5.90196C9.87843 5.69281 9.98039 5.44183 9.98039 5.14902C9.98039 4.85098 9.87843 4.6 9.67451 4.39608C9.47582 4.18693 9.22745 4.08235 8.92941 4.08235C8.6366 4.08235 8.38562 4.18693 8.17647 4.39608C7.97255 4.6 7.87059 4.85098 7.87059 5.14902C7.87059 5.44183 7.97255 5.69281 8.17647 5.90196C8.38562 6.10588 8.6366 6.20784 8.92941 6.20784Z" fill="#9EA4B4"/>
</svg>
