<svg width="69" height="41" viewBox="0 0 69 41" fill="none" xmlns="http://www.w3.org/2000/svg">
<path d="M60.1463 40.2407C61.8969 38.2859 62.7721 36.5792 62.7721 35.1204C62.7721 33.895 62.0865 33.0051 60.7152 32.4508C59.519 34.5806 57.8998 36.3457 55.8575 37.7462C53.8443 39.1758 51.379 40.0365 48.4614 40.3282C47.8779 40.3866 47.4403 40.4158 47.1485 40.4158C45.6897 40.4158 44.4352 40.1678 43.3848 39.6718C42.3345 39.1758 41.5322 38.5048 40.9778 37.6587C40.4235 36.8126 40.1463 35.8935 40.1463 34.9016C40.1463 33.7345 40.5402 32.5967 41.3279 31.488C42.1157 30.3501 43.3119 29.3873 44.9165 28.5996C46.5504 27.8118 48.5489 27.3013 50.9122 27.0679C52.6044 26.922 54.0194 26.849 55.1572 26.849C55.7116 26.849 56.4556 26.8782 57.3892 26.9366L58.3082 24.3545H63.8225L62.5971 27.8556C64.581 28.5266 66.0106 29.4749 66.8859 30.7002C67.7904 31.9256 68.2426 33.2969 68.2426 34.814C68.2426 36.6521 67.7028 38.461 66.6233 40.2407H60.1463ZM68.3301 0.415771V23.2604H63.0785V0.415771H68.3301ZM60.4527 19.8906C58.1769 20.5033 56.0909 20.9847 54.1944 21.3348C52.298 21.6849 50.4891 21.86 48.7678 21.86C43.9829 21.86 40.8319 20.2407 39.3148 17.0022C38.3812 15.135 37.9144 12.8884 37.9144 10.2626C37.9144 8.01606 38.2791 5.11307 39.0085 1.55363H44.3476C43.5891 5.14225 43.2098 8.07442 43.2098 10.3501C43.2098 12.2757 43.4869 13.7929 44.0413 14.9015C44.7415 16.3603 46.3608 17.0897 48.899 17.0897C50.3287 17.0897 51.9625 16.9001 53.8006 16.5208C55.6678 16.1415 57.8852 15.6018 60.4527 14.9015V19.8906ZM47.9362 35.5142C50.9705 35.2225 53.3629 33.9387 55.1135 31.663C53.5088 31.7214 52.2834 31.7943 51.4373 31.8819C50.2411 31.9986 49.1762 32.2174 48.2426 32.5383C47.3381 32.8592 46.6379 33.2239 46.1419 33.6324C45.6459 34.0117 45.3979 34.3764 45.3979 34.7265C45.3979 35.0182 45.6022 35.2371 46.0106 35.3829C46.4483 35.558 47.0901 35.6018 47.9362 35.5142Z" fill="white"/>
<path d="M11.3348 6.36763C9.78848 6.36763 8.62144 6.73233 7.8337 7.46172C7.07513 8.19112 6.69584 9.37274 6.69584 11.0066C6.69584 12.2028 7.13348 13.2531 8.00875 14.1576C8.9132 15.062 10.0219 15.5142 11.3348 15.5142H11.7724C13.0853 15.5142 14.1794 15.062 15.0547 14.1576C15.9592 13.2531 16.4114 12.2028 16.4114 11.0066C16.4114 9.37274 16.0175 8.19112 15.2298 7.46172C14.4712 6.73233 13.3187 6.36763 11.7724 6.36763H11.3348ZM11.7724 1.55363C14.6608 1.55363 17.0241 2.37055 18.8621 4.00439C20.7294 5.60906 21.663 7.94313 21.663 11.0066C21.663 12.6112 21.24 14.1284 20.3939 15.558C19.5478 16.9876 18.3662 18.1401 16.849 19.0153C15.3319 19.8906 13.6397 20.3282 11.7724 20.3282H11.3348C9.46754 20.3282 7.77535 19.8906 6.25821 19.0153C4.74107 18.1401 3.55945 16.9876 2.71335 15.558C1.86725 14.1284 1.4442 12.6112 1.4442 11.0066C1.4442 7.9723 2.34865 5.63824 4.15755 4.00439C5.99562 2.37055 8.38804 1.55363 11.3348 1.55363H11.7724ZM31.9912 0.415771V38.5777H26.7396V33.3261C24.3764 34.2013 21.9402 34.7557 19.4311 34.9891V30.1751C21.9985 29.8541 24.4347 29.1831 26.7396 28.1619V24.9672C22.8884 26.5427 18.5996 27.5492 13.8731 27.9869V37.6587H8.62144V28.2495C5.73304 28.2786 2.85923 28.1619 0 27.8994L0.437637 23.0854C3.06346 23.3188 5.57257 23.4355 7.96499 23.4355C15.3173 23.4355 21.5755 22.1663 26.7396 19.628V0.415771H31.9912Z" fill="white"/>
</svg>
