<svg width="18" height="18" viewBox="0 0 18 18" fill="none" xmlns="http://www.w3.org/2000/svg">
<path d="M5.40088 12.5552C4.56058 11.7206 3.80888 10.8489 3.14579 9.93999C2.48841 9.03109 1.96823 8.12506 1.58523 7.22188C1.20224 6.3187 1.01074 5.46125 1.01074 4.64953C1.01074 4.11219 1.1022 3.60916 1.28513 3.14042C1.47376 2.67168 1.74529 2.26582 2.0997 1.92284C2.35122 1.68276 2.63418 1.47125 2.94858 1.28833C3.26869 1.09969 3.57451 1.00537 3.86605 1.00537C4.0947 1.00537 4.29763 1.08826 4.47484 1.25403C4.65204 1.4198 4.84354 1.6456 5.04933 1.93142L6.48984 3.93785C6.6499 4.1665 6.76137 4.37229 6.82425 4.55521C6.88713 4.73813 6.91857 4.91534 6.91857 5.08683C6.91857 5.22974 6.89856 5.36407 6.85854 5.48983C6.81853 5.61559 6.74422 5.77279 6.63561 5.96143L5.82961 7.34192C5.79531 7.4048 5.76387 7.46196 5.73529 7.51341C5.71242 7.56486 5.70099 7.6163 5.70099 7.66775C5.70099 7.73635 5.70956 7.80208 5.72671 7.86496C5.74958 7.92784 5.77244 7.98215 5.79531 8.02788C6.13829 8.71384 6.72993 9.47697 7.57023 10.3173C7.97609 10.7231 8.39338 11.0947 8.8221 11.432C9.25083 11.7635 9.62811 12.0036 9.95394 12.1522C10.034 12.1865 10.1054 12.2151 10.1683 12.238C10.2369 12.2551 10.3112 12.2637 10.3912 12.2637C10.4484 12.2637 10.4998 12.258 10.5456 12.2465C10.597 12.2294 10.6628 12.1979 10.7428 12.1522L12.1147 11.3977C12.3376 11.2776 12.5149 11.2004 12.6463 11.1661C12.7835 11.1261 12.9179 11.1061 13.0493 11.1061C13.2037 11.1061 13.3523 11.1347 13.4952 11.1919C13.6438 11.2433 13.8496 11.3605 14.1126 11.5434L16.2047 13.044C16.4848 13.244 16.6849 13.4298 16.805 13.6013C16.9307 13.7728 16.9936 13.95 16.9936 14.1329C16.9936 14.3673 16.9307 14.6188 16.805 14.8875C16.6849 15.1561 16.4677 15.4677 16.1533 15.8221C15.8275 16.1879 15.4245 16.4766 14.9443 16.6881C14.4641 16.8996 13.9382 17.0054 13.3666 17.0054C12.5549 17.0054 11.6946 16.811 10.7857 16.4223C9.87677 16.0336 8.96215 15.5048 8.04182 14.836C7.1215 14.1615 6.24118 13.4012 5.40088 12.5552Z" fill="#9EA4B4"/>
</svg>
