<svg width="18" height="18" viewBox="0 0 18 18" fill="none" xmlns="http://www.w3.org/2000/svg">
<path d="M2.12886 9.53121C1.86765 9.52553 1.65186 9.47159 1.48151 9.36937C1.31115 9.26148 1.18338 9.1252 1.09821 8.96052C1.01871 8.79016 0.987474 8.61129 1.00451 8.42389C1.02155 8.23082 1.08685 8.05195 1.20042 7.88727C1.31399 7.72259 1.48151 7.58915 1.70297 7.48693L15.3145 1.17522C15.6154 1.03894 15.8908 0.982153 16.1407 1.00487C16.3962 1.0219 16.6063 1.10708 16.771 1.2604C16.9414 1.40804 17.0436 1.60395 17.0776 1.84813C17.1117 2.09231 17.0578 2.37056 16.9158 2.68288L10.6211 16.2177C10.5076 16.4619 10.3628 16.6464 10.1867 16.7714C10.0164 16.902 9.83466 16.9758 9.64158 16.9928C9.44851 17.0155 9.2668 16.9843 9.09644 16.8991C8.92609 16.8196 8.78696 16.6947 8.67907 16.5243C8.57686 16.354 8.52575 16.141 8.52575 15.8855L8.50871 9.72712C8.50871 9.61355 8.45193 9.55677 8.33836 9.55677L2.12886 9.53121Z" fill="#9EA4B4"/>
</svg>
