<svg width="12" height="13" viewBox="0 0 12 13" fill="none" xmlns="http://www.w3.org/2000/svg">
<path d="M5.9999 1.70001C4.0124 1.70001 2.3999 3.11677 2.3999 4.86171C2.3999 6.8695 4.7999 10.0513 5.68115 11.1503C5.71773 11.1966 5.76568 11.2344 5.82107 11.2604C5.87647 11.2864 5.93774 11.3 5.9999 11.3C6.06206 11.3 6.12334 11.2864 6.17873 11.2604C6.23413 11.2344 6.28207 11.1966 6.31865 11.1503C7.1999 10.0517 9.5999 6.87112 9.5999 4.86171C9.5999 3.11677 7.9874 1.70001 5.9999 1.70001Z" stroke="#767984" stroke-width="0.6" stroke-linecap="round" stroke-linejoin="round"/>
<path d="M6.00005 6.49998C6.66279 6.49998 7.20005 5.96272 7.20005 5.29998C7.20005 4.63723 6.66279 4.09998 6.00005 4.09998C5.33731 4.09998 4.80005 4.63723 4.80005 5.29998C4.80005 5.96272 5.33731 6.49998 6.00005 6.49998Z" stroke="#767984" stroke-width="0.6" stroke-linecap="round" stroke-linejoin="round"/>
</svg>
