<svg width="39" height="34" viewBox="0 0 39 34" fill="none" xmlns="http://www.w3.org/2000/svg">
<path d="M6.41644 9.264C5.56844 9.264 4.92844 9.464 4.49644 9.864C4.08044 10.264 3.87244 10.912 3.87244 11.808C3.87244 12.464 4.11244 13.04 4.59244 13.536C5.08844 14.032 5.69644 14.28 6.41644 14.28H6.65644C7.37644 14.28 7.97644 14.032 8.45644 13.536C8.95244 13.04 9.20044 12.464 9.20044 11.808C9.20044 10.912 8.98444 10.264 8.55244 9.864C8.13644 9.464 7.50444 9.264 6.65644 9.264H6.41644ZM6.65644 6.624C8.24044 6.624 9.53644 7.072 10.5444 7.968C11.5684 8.848 12.0804 10.128 12.0804 11.808C12.0804 12.688 11.8484 13.52 11.3844 14.304C10.9204 15.088 10.2724 15.72 9.44044 16.2C8.60844 16.68 7.68044 16.92 6.65644 16.92H6.41644C5.39244 16.92 4.46444 16.68 3.63244 16.2C2.80044 15.72 2.15244 15.088 1.68844 14.304C1.22444 13.52 0.992439 12.688 0.992439 11.808C0.992439 10.144 1.48844 8.864 2.48044 7.968C3.48844 7.072 4.80044 6.624 6.41644 6.624H6.65644ZM17.7444 6V26.928H14.8644V24.048C13.5684 24.528 12.2324 24.832 10.8564 24.96V22.32C12.2644 22.144 13.6004 21.776 14.8644 21.216V19.464C12.7524 20.328 10.4004 20.88 7.80844 21.12V26.424H4.92844V21.264C3.34444 21.28 1.76844 21.216 0.200439 21.072L0.440439 18.432C1.88044 18.56 3.25644 18.624 4.56844 18.624C8.60044 18.624 12.0324 17.928 14.8644 16.536V6H17.7444Z" fill="#6817FF"/>
<path d="M33.1849 27.84C34.1449 26.768 34.6249 25.832 34.6249 25.032C34.6249 24.36 34.2489 23.872 33.4969 23.568C32.8409 24.736 31.9529 25.704 30.8329 26.472C29.7289 27.256 28.3769 27.728 26.7769 27.888C26.4569 27.92 26.2169 27.936 26.0569 27.936C25.2569 27.936 24.5689 27.8 23.9929 27.528C23.4169 27.256 22.9769 26.888 22.6729 26.424C22.3689 25.96 22.2169 25.456 22.2169 24.912C22.2169 24.272 22.4329 23.648 22.8649 23.04C23.2969 22.416 23.9529 21.888 24.8329 21.456C25.7289 21.024 26.8249 20.744 28.1209 20.616C29.0489 20.536 29.8249 20.496 30.4489 20.496C30.7529 20.496 31.1609 20.512 31.6729 20.544L32.1769 19.128H35.2009L34.5289 21.048C35.6169 21.416 36.4009 21.936 36.8809 22.608C37.3769 23.28 37.6249 24.032 37.6249 24.864C37.6249 25.872 37.3289 26.864 36.7369 27.84H33.1849ZM37.6729 6V18.528H34.7929V6H37.6729ZM33.3529 16.68C32.1049 17.016 30.9609 17.28 29.9209 17.472C28.8809 17.664 27.8889 17.76 26.9449 17.76C24.3209 17.76 22.5929 16.872 21.7609 15.096C21.2489 14.072 20.9929 12.84 20.9929 11.4C20.9929 10.168 21.1929 8.576 21.5929 6.624H24.5209C24.1049 8.592 23.8969 10.2 23.8969 11.448C23.8969 12.504 24.0489 13.336 24.3529 13.944C24.7369 14.744 25.6249 15.144 27.0169 15.144C27.8009 15.144 28.6969 15.04 29.7049 14.832C30.7289 14.624 31.9449 14.328 33.3529 13.944V16.68ZM26.4889 25.248C28.1529 25.088 29.4649 24.384 30.4249 23.136C29.5449 23.168 28.8729 23.208 28.4089 23.256C27.7529 23.32 27.1689 23.44 26.6569 23.616C26.1609 23.792 25.7769 23.992 25.5049 24.216C25.2329 24.424 25.0969 24.624 25.0969 24.816C25.0969 24.976 25.2089 25.096 25.4329 25.176C25.6729 25.272 26.0249 25.296 26.4889 25.248Z" fill="#6817FF"/>
</svg>
