<svg width="18" height="18" viewBox="0 0 18 18" fill="none" xmlns="http://www.w3.org/2000/svg">
<path d="M1 7.58632H8.35539V15H9.3257V7.58632H11.4427C11.6915 7.58632 11.8838 7.65581 12.0195 7.79479C12.1597 7.92942 12.2299 8.11618 12.2299 8.35505V15H13.2002V8.25081C13.2002 7.72964 13.0554 7.33442 12.7659 7.06515C12.4809 6.79153 12.0625 6.65472 11.5106 6.65472H1V7.58632ZM3.13062 14.9935C2.42041 14.9935 1.88663 14.8241 1.52926 14.4853C1.17642 14.1509 1 13.6493 1 12.9805V5.01954C1 4.34636 1.17642 3.84256 1.52926 3.50814C1.88663 3.16938 2.42041 3 3.13062 3H14.8694C15.5841 3 16.1179 3.16938 16.4707 3.50814C16.8236 3.84691 17 4.35071 17 5.01954V12.9805C17 13.6493 16.8236 14.1509 16.4707 14.4853C16.1179 14.8241 15.5841 14.9935 14.8694 14.9935H3.13062Z" fill="#9EA4B4"/>
</svg>
