<svg width="45" height="44" viewBox="0 0 45 44" fill="none" xmlns="http://www.w3.org/2000/svg">
<path d="M26.6097 3.21951C26.6097 5.00098 25.1716 6.43902 23.3902 6.43902C21.6087 6.43902 20.1707 5.00098 20.1707 3.21951C20.1707 1.43805 21.6087 0 23.3902 0C25.1716 0 26.6097 1.43805 26.6097 3.21951Z" fill="#8245F4"/>
<path d="M14.805 6.43903C13.0235 6.43903 11.5854 7.87707 11.5854 9.65854C11.5854 11.44 13.0235 12.878 14.805 12.878C16.5864 12.878 18.0245 11.44 18.0245 9.65854C18.0245 7.87707 16.5864 6.43903 14.805 6.43903Z" fill="#8245F4"/>
<path d="M26.6098 21.4634L25.3958 17.9617C25.1706 17.312 25.6531 16.6342 26.3407 16.6342H31.0527C31.208 16.6342 31.3611 16.598 31.4999 16.5286L35.9249 14.3161C36.719 13.9512 37.041 12.9639 36.6332 12.1698C36.5424 11.979 36.4142 11.8083 36.2564 11.6678C36.0985 11.5273 35.9141 11.4199 35.714 11.3519C35.514 11.2838 35.3023 11.2566 35.0915 11.2717C34.8807 11.2869 34.6751 11.3441 34.4868 11.44L33.5654 11.9007C33.0938 12.1365 32.5201 11.9656 32.2544 11.5102L31.6751 10.5171C31.0527 9.12196 29.5288 8.32781 28.0263 8.67123L22.7249 9.80879C21.2439 10.1307 20.1707 11.4829 20.1707 13.0283V13.9956C20.1707 14.3299 20.0036 14.6421 19.7254 14.8276L14.965 18.0012C14.962 18.0032 14.9634 18.0078 14.967 18.0078C14.9703 18.0078 14.9719 18.0119 14.9694 18.0141C14.7984 18.1634 14.567 18.3548 14.44 18.6088L12.6789 22.1111C12.5821 22.3037 12.4256 22.4599 12.2327 22.5563L8.70927 24.3181C7.91512 24.6829 7.59317 25.6917 8.00098 26.4859C8.19523 26.8666 8.53238 27.1548 8.93864 27.2876C9.34491 27.4203 9.78722 27.3867 10.1688 27.1942L14.6374 24.9598C14.8298 24.8637 14.986 24.708 15.0829 24.5161L16.52 21.6696C16.8334 21.0488 17.6692 20.9295 18.1437 21.438L19.7651 23.1752C20.0151 23.443 20.1038 23.8271 19.9575 24.163C17.7578 29.2113 8.38366 35.3529 4.59659 37.6794C3.91605 38.0975 3.96524 39.0838 4.70487 39.3853C7.72471 40.616 14.4432 42.9268 22.3171 42.9268C30.4457 42.9268 37.3429 40.4641 40.2107 39.2693C40.8843 38.9887 40.9948 38.1114 40.441 37.636C37.5252 35.1328 30.0271 28.2981 26.6098 21.4634Z" fill="#CFC3FF"/>
<path d="M31.6178 18.4511C31.5901 18.465 31.5594 18.4722 31.5284 18.4722H27.8197C27.672 18.4722 27.5752 18.6268 27.6399 18.7597L28 19.5C30.3235 24.1471 31.7832 24.4751 33.3085 25.1558C33.4564 25.2218 33.6233 25.0984 33.5984 24.9383L32.5621 18.2707C32.5413 18.1368 32.3962 18.0619 32.275 18.1225L31.6178 18.4511Z" fill="#CFC3FF"/>
</svg>
