<svg width="18" height="18" viewBox="0 0 18 18" fill="none" xmlns="http://www.w3.org/2000/svg">
<path d="M4.89804 9.84706H8.99216C9.14902 9.84706 9.27974 9.79477 9.38431 9.6902C9.48889 9.58562 9.54118 9.4549 9.54118 9.29804V4.01176C9.54118 3.86013 9.48889 3.73203 9.38431 3.62745C9.27974 3.52288 9.14902 3.47059 8.99216 3.47059C8.84052 3.47059 8.71242 3.52288 8.60784 3.62745C8.50327 3.73203 8.45098 3.86013 8.45098 4.01176V8.75686H4.89804C4.74118 8.75686 4.61046 8.80915 4.50588 8.91373C4.40131 9.0183 4.34902 9.14641 4.34902 9.29804C4.34902 9.4549 4.40131 9.58562 4.50588 9.6902C4.61046 9.79477 4.74118 9.84706 4.89804 9.84706ZM9 17C7.89673 17 6.86144 16.7909 5.89412 16.3725C4.9268 15.9595 4.07712 15.3869 3.3451 14.6549C2.61307 13.9176 2.03791 13.068 1.61961 12.1059C1.20654 11.1386 1 10.1033 1 9C1 7.89673 1.20654 6.86144 1.61961 5.89412C2.03791 4.9268 2.61307 4.07712 3.3451 3.3451C4.07712 2.61307 4.9268 2.04052 5.89412 1.62745C6.86144 1.20915 7.89673 1 9 1C10.1033 1 11.1386 1.20915 12.1059 1.62745C13.0732 2.04052 13.9229 2.61307 14.6549 3.3451C15.3869 4.07712 15.9595 4.9268 16.3725 5.89412C16.7909 6.86144 17 7.89673 17 9C17 10.1033 16.7909 11.1386 16.3725 12.1059C15.9595 13.068 15.3869 13.9176 14.6549 14.6549C13.9229 15.3869 13.0732 15.9595 12.1059 16.3725C11.1386 16.7909 10.1033 17 9 17Z" fill="#9EA4B4"/>
</svg>
